<?xml version="1.0" encoding="utf-8" standalone="no"?>
<!DOCTYPE svg PUBLIC "-//W3C//DTD SVG 1.1//EN"
  "http://www.w3.org/Graphics/SVG/1.1/DTD/svg11.dtd">
<svg xmlns:xlink="http://www.w3.org/1999/xlink" width="720pt" height="360pt" viewBox="0 0 720 360" xmlns="http://www.w3.org/2000/svg" version="1.1">
 <metadata>
  <rdf:RDF xmlns:dc="http://purl.org/dc/elements/1.1/" xmlns:cc="http://creativecommons.org/ns#" xmlns:rdf="http://www.w3.org/1999/02/22-rdf-syntax-ns#">
   <cc:Work>
    <dc:type rdf:resource="http://purl.org/dc/dcmitype/StillImage"/>
    <dc:date>2023-01-09T01:23:06.586773</dc:date>
    <dc:format>image/svg+xml</dc:format>
    <dc:creator>
     <cc:Agent>
      <dc:title>Matplotlib v3.5.2, https://matplotlib.org/</dc:title>
     </cc:Agent>
    </dc:creator>
   </cc:Work>
  </rdf:RDF>
 </metadata>
 <defs>
  <style type="text/css">*{stroke-linejoin: round; stroke-linecap: butt}</style>
 </defs>
 <g id="figure_1">
  <g id="patch_1">
   <path d="M 0 360 
L 720 360 
L 720 0 
L 0 0 
z
" style="fill: #ffffff"/>
  </g>
  <g id="axes_1">
   <g id="patch_2">
    <path d="M 24.1625 87.589445 
L 709.2 87.589445 
L 709.2 25.918125 
L 24.1625 25.918125 
z
" style="fill: #ffffff"/>
   </g>
   <g id="PolyCollection_1">
    <defs>
     <path id="m2dbc8b04b2" d="M 55.300568 -275.213797 
L 55.300568 -275.213797 
L 55.300568 -275.213797 
L 96.817992 -275.213797 
L 96.817992 -331.278633 
L 138.335417 -331.278633 
L 138.335417 -275.213797 
L 179.852841 -275.213797 
L 179.852841 -275.213797 
L 221.370265 -275.213797 
L 221.370265 -275.213797 
L 262.887689 -275.213797 
L 262.887689 -275.213797 
L 304.405114 -275.213797 
L 304.405114 -275.213797 
L 345.922538 -275.213797 
L 345.922538 -275.213797 
L 387.439962 -275.213797 
L 387.439962 -275.213797 
L 428.957386 -275.213797 
L 428.957386 -275.213797 
L 470.474811 -275.213797 
L 470.474811 -275.213797 
L 511.992235 -275.213797 
L 511.992235 -275.213797 
L 553.509659 -275.213797 
L 553.509659 -275.213797 
L 595.027083 -275.213797 
L 595.027083 -275.213797 
L 636.544508 -275.213797 
L 636.544508 -275.213797 
L 678.061932 -275.213797 
L 678.061932 -275.213797 
L 678.061932 -275.213797 
L 636.544508 -275.213797 
L 636.544508 -275.213797 
L 595.027083 -275.213797 
L 595.027083 -275.213797 
L 553.509659 -275.213797 
L 553.509659 -275.213797 
L 511.992235 -275.213797 
L 511.992235 -275.213797 
L 470.474811 -275.213797 
L 470.474811 -275.213797 
L 428.957386 -275.213797 
L 428.957386 -275.213797 
L 387.439962 -275.213797 
L 387.439962 -275.213797 
L 345.922538 -275.213797 
L 345.922538 -275.213797 
L 304.405114 -275.213797 
L 304.405114 -275.213797 
L 262.887689 -275.213797 
L 262.887689 -275.213797 
L 221.370265 -275.213797 
L 221.370265 -275.213797 
L 179.852841 -275.213797 
L 179.852841 -275.213797 
L 138.335417 -275.213797 
L 138.335417 -275.213797 
L 96.817992 -275.213797 
L 96.817992 -275.213797 
L 55.300568 -275.213797 
L 55.300568 -275.213797 
z
" style="stroke: #0000ff; stroke-opacity: 0.4"/>
    </defs>
    <g clip-path="url(#p19cf3accb9)">
     <use xlink:href="#m2dbc8b04b2" x="0" y="360" style="fill: #0000ff; fill-opacity: 0.4; stroke: #0000ff; stroke-opacity: 0.4"/>
    </g>
   </g>
   <g id="matplotlib.axis_1">
    <g id="xtick_1">
     <g id="line2d_1">
      <defs>
       <path id="ma9560e8a28" d="M 0 0 
L 0 3.5 
" style="stroke: #000000; stroke-width: 0.8"/>
      </defs>
      <g>
       <use xlink:href="#ma9560e8a28" x="55.300568" y="87.589445" style="stroke: #000000; stroke-width: 0.8"/>
      </g>
     </g>
    </g>
    <g id="xtick_2">
     <g id="line2d_2">
      <g>
       <use xlink:href="#ma9560e8a28" x="96.817992" y="87.589445" style="stroke: #000000; stroke-width: 0.8"/>
      </g>
     </g>
    </g>
    <g id="xtick_3">
     <g id="line2d_3">
      <g>
       <use xlink:href="#ma9560e8a28" x="138.335417" y="87.589445" style="stroke: #000000; stroke-width: 0.8"/>
      </g>
     </g>
    </g>
    <g id="xtick_4">
     <g id="line2d_4">
      <g>
       <use xlink:href="#ma9560e8a28" x="179.852841" y="87.589445" style="stroke: #000000; stroke-width: 0.8"/>
      </g>
     </g>
    </g>
    <g id="xtick_5">
     <g id="line2d_5">
      <g>
       <use xlink:href="#ma9560e8a28" x="221.370265" y="87.589445" style="stroke: #000000; stroke-width: 0.8"/>
      </g>
     </g>
    </g>
    <g id="xtick_6">
     <g id="line2d_6">
      <g>
       <use xlink:href="#ma9560e8a28" x="262.887689" y="87.589445" style="stroke: #000000; stroke-width: 0.8"/>
      </g>
     </g>
    </g>
    <g id="xtick_7">
     <g id="line2d_7">
      <g>
       <use xlink:href="#ma9560e8a28" x="304.405114" y="87.589445" style="stroke: #000000; stroke-width: 0.8"/>
      </g>
     </g>
    </g>
    <g id="xtick_8">
     <g id="line2d_8">
      <g>
       <use xlink:href="#ma9560e8a28" x="345.922538" y="87.589445" style="stroke: #000000; stroke-width: 0.8"/>
      </g>
     </g>
    </g>
    <g id="xtick_9">
     <g id="line2d_9">
      <g>
       <use xlink:href="#ma9560e8a28" x="387.439962" y="87.589445" style="stroke: #000000; stroke-width: 0.8"/>
      </g>
     </g>
    </g>
    <g id="xtick_10">
     <g id="line2d_10">
      <g>
       <use xlink:href="#ma9560e8a28" x="428.957386" y="87.589445" style="stroke: #000000; stroke-width: 0.8"/>
      </g>
     </g>
    </g>
    <g id="xtick_11">
     <g id="line2d_11">
      <g>
       <use xlink:href="#ma9560e8a28" x="470.474811" y="87.589445" style="stroke: #000000; stroke-width: 0.8"/>
      </g>
     </g>
    </g>
    <g id="xtick_12">
     <g id="line2d_12">
      <g>
       <use xlink:href="#ma9560e8a28" x="511.992235" y="87.589445" style="stroke: #000000; stroke-width: 0.8"/>
      </g>
     </g>
    </g>
    <g id="xtick_13">
     <g id="line2d_13">
      <g>
       <use xlink:href="#ma9560e8a28" x="553.509659" y="87.589445" style="stroke: #000000; stroke-width: 0.8"/>
      </g>
     </g>
    </g>
    <g id="xtick_14">
     <g id="line2d_14">
      <g>
       <use xlink:href="#ma9560e8a28" x="595.027083" y="87.589445" style="stroke: #000000; stroke-width: 0.8"/>
      </g>
     </g>
    </g>
    <g id="xtick_15">
     <g id="line2d_15">
      <g>
       <use xlink:href="#ma9560e8a28" x="636.544508" y="87.589445" style="stroke: #000000; stroke-width: 0.8"/>
      </g>
     </g>
    </g>
    <g id="xtick_16">
     <g id="line2d_16">
      <g>
       <use xlink:href="#ma9560e8a28" x="678.061932" y="87.589445" style="stroke: #000000; stroke-width: 0.8"/>
      </g>
     </g>
    </g>
   </g>
   <g id="matplotlib.axis_2">
    <g id="ytick_1">
     <g id="line2d_17">
      <defs>
       <path id="m20ad4d90dd" d="M 0 0 
L -3.5 0 
" style="stroke: #000000; stroke-width: 0.8"/>
      </defs>
      <g>
       <use xlink:href="#m20ad4d90dd" x="24.1625" y="84.786203" style="stroke: #000000; stroke-width: 0.8"/>
      </g>
     </g>
     <g id="text_1">
      <!-- 0 -->
      <g transform="translate(10.8 88.585422)scale(0.1 -0.1)">
       <defs>
        <path id="DejaVuSans-30" d="M 2034 4250 
Q 1547 4250 1301 3770 
Q 1056 3291 1056 2328 
Q 1056 1369 1301 889 
Q 1547 409 2034 409 
Q 2525 409 2770 889 
Q 3016 1369 3016 2328 
Q 3016 3291 2770 3770 
Q 2525 4250 2034 4250 
z
M 2034 4750 
Q 2819 4750 3233 4129 
Q 3647 3509 3647 2328 
Q 3647 1150 3233 529 
Q 2819 -91 2034 -91 
Q 1250 -91 836 529 
Q 422 1150 422 2328 
Q 422 3509 836 4129 
Q 1250 4750 2034 4750 
z
" transform="scale(0.015625)"/>
       </defs>
       <use xlink:href="#DejaVuSans-30"/>
      </g>
     </g>
    </g>
    <g id="ytick_2">
     <g id="line2d_18">
      <g>
       <use xlink:href="#m20ad4d90dd" x="24.1625" y="28.721367" style="stroke: #000000; stroke-width: 0.8"/>
      </g>
     </g>
     <g id="text_2">
      <!-- 1 -->
      <g transform="translate(10.8 32.520586)scale(0.1 -0.1)">
       <defs>
        <path id="DejaVuSans-31" d="M 794 531 
L 1825 531 
L 1825 4091 
L 703 3866 
L 703 4441 
L 1819 4666 
L 2450 4666 
L 2450 531 
L 3481 531 
L 3481 0 
L 794 0 
L 794 531 
z
" transform="scale(0.015625)"/>
       </defs>
       <use xlink:href="#DejaVuSans-31"/>
      </g>
     </g>
    </g>
   </g>
   <g id="line2d_19">
    <path d="M 55.300568 84.786203 
L 55.300568 84.786203 
L 96.817992 84.786203 
L 96.817992 28.721367 
L 138.335417 28.721367 
L 138.335417 84.786203 
L 179.852841 84.786203 
L 179.852841 84.786203 
L 221.370265 84.786203 
L 221.370265 84.786203 
L 262.887689 84.786203 
L 262.887689 84.786203 
L 304.405114 84.786203 
L 304.405114 84.786203 
L 345.922538 84.786203 
L 345.922538 84.786203 
L 387.439962 84.786203 
L 387.439962 84.786203 
L 428.957386 84.786203 
L 428.957386 84.786203 
L 470.474811 84.786203 
L 470.474811 84.786203 
L 511.992235 84.786203 
L 511.992235 84.786203 
L 553.509659 84.786203 
L 553.509659 84.786203 
L 595.027083 84.786203 
L 595.027083 84.786203 
L 636.544508 84.786203 
L 636.544508 84.786203 
L 678.061932 84.786203 
" clip-path="url(#p19cf3accb9)" style="fill: none; stroke: #0000ff; stroke-width: 1.5; stroke-linecap: square"/>
   </g>
   <g id="patch_3">
    <path d="M 24.1625 87.589445 
L 24.1625 25.918125 
" style="fill: none; stroke: #000000; stroke-width: 0.8; stroke-linejoin: miter; stroke-linecap: square"/>
   </g>
   <g id="patch_4">
    <path d="M 709.2 87.589445 
L 709.2 25.918125 
" style="fill: none; stroke: #000000; stroke-width: 0.8; stroke-linejoin: miter; stroke-linecap: square"/>
   </g>
   <g id="patch_5">
    <path d="M 24.1625 87.589445 
L 709.2 87.589445 
" style="fill: none; stroke: #000000; stroke-width: 0.8; stroke-linejoin: miter; stroke-linecap: square"/>
   </g>
   <g id="patch_6">
    <path d="M 24.1625 25.918125 
L 709.2 25.918125 
" style="fill: none; stroke: #000000; stroke-width: 0.8; stroke-linejoin: miter; stroke-linecap: square"/>
   </g>
   <g id="text_3">
    <!-- combinational manhattan - ILA -->
    <g transform="translate(273.85 19.918125)scale(0.12 -0.12)">
     <defs>
      <path id="DejaVuSans-63" d="M 3122 3366 
L 3122 2828 
Q 2878 2963 2633 3030 
Q 2388 3097 2138 3097 
Q 1578 3097 1268 2742 
Q 959 2388 959 1747 
Q 959 1106 1268 751 
Q 1578 397 2138 397 
Q 2388 397 2633 464 
Q 2878 531 3122 666 
L 3122 134 
Q 2881 22 2623 -34 
Q 2366 -91 2075 -91 
Q 1284 -91 818 406 
Q 353 903 353 1747 
Q 353 2603 823 3093 
Q 1294 3584 2113 3584 
Q 2378 3584 2631 3529 
Q 2884 3475 3122 3366 
z
" transform="scale(0.015625)"/>
      <path id="DejaVuSans-6f" d="M 1959 3097 
Q 1497 3097 1228 2736 
Q 959 2375 959 1747 
Q 959 1119 1226 758 
Q 1494 397 1959 397 
Q 2419 397 2687 759 
Q 2956 1122 2956 1747 
Q 2956 2369 2687 2733 
Q 2419 3097 1959 3097 
z
M 1959 3584 
Q 2709 3584 3137 3096 
Q 3566 2609 3566 1747 
Q 3566 888 3137 398 
Q 2709 -91 1959 -91 
Q 1206 -91 779 398 
Q 353 888 353 1747 
Q 353 2609 779 3096 
Q 1206 3584 1959 3584 
z
" transform="scale(0.015625)"/>
      <path id="DejaVuSans-6d" d="M 3328 2828 
Q 3544 3216 3844 3400 
Q 4144 3584 4550 3584 
Q 5097 3584 5394 3201 
Q 5691 2819 5691 2113 
L 5691 0 
L 5113 0 
L 5113 2094 
Q 5113 2597 4934 2840 
Q 4756 3084 4391 3084 
Q 3944 3084 3684 2787 
Q 3425 2491 3425 1978 
L 3425 0 
L 2847 0 
L 2847 2094 
Q 2847 2600 2669 2842 
Q 2491 3084 2119 3084 
Q 1678 3084 1418 2786 
Q 1159 2488 1159 1978 
L 1159 0 
L 581 0 
L 581 3500 
L 1159 3500 
L 1159 2956 
Q 1356 3278 1631 3431 
Q 1906 3584 2284 3584 
Q 2666 3584 2933 3390 
Q 3200 3197 3328 2828 
z
" transform="scale(0.015625)"/>
      <path id="DejaVuSans-62" d="M 3116 1747 
Q 3116 2381 2855 2742 
Q 2594 3103 2138 3103 
Q 1681 3103 1420 2742 
Q 1159 2381 1159 1747 
Q 1159 1113 1420 752 
Q 1681 391 2138 391 
Q 2594 391 2855 752 
Q 3116 1113 3116 1747 
z
M 1159 2969 
Q 1341 3281 1617 3432 
Q 1894 3584 2278 3584 
Q 2916 3584 3314 3078 
Q 3713 2572 3713 1747 
Q 3713 922 3314 415 
Q 2916 -91 2278 -91 
Q 1894 -91 1617 61 
Q 1341 213 1159 525 
L 1159 0 
L 581 0 
L 581 4863 
L 1159 4863 
L 1159 2969 
z
" transform="scale(0.015625)"/>
      <path id="DejaVuSans-69" d="M 603 3500 
L 1178 3500 
L 1178 0 
L 603 0 
L 603 3500 
z
M 603 4863 
L 1178 4863 
L 1178 4134 
L 603 4134 
L 603 4863 
z
" transform="scale(0.015625)"/>
      <path id="DejaVuSans-6e" d="M 3513 2113 
L 3513 0 
L 2938 0 
L 2938 2094 
Q 2938 2591 2744 2837 
Q 2550 3084 2163 3084 
Q 1697 3084 1428 2787 
Q 1159 2491 1159 1978 
L 1159 0 
L 581 0 
L 581 3500 
L 1159 3500 
L 1159 2956 
Q 1366 3272 1645 3428 
Q 1925 3584 2291 3584 
Q 2894 3584 3203 3211 
Q 3513 2838 3513 2113 
z
" transform="scale(0.015625)"/>
      <path id="DejaVuSans-61" d="M 2194 1759 
Q 1497 1759 1228 1600 
Q 959 1441 959 1056 
Q 959 750 1161 570 
Q 1363 391 1709 391 
Q 2188 391 2477 730 
Q 2766 1069 2766 1631 
L 2766 1759 
L 2194 1759 
z
M 3341 1997 
L 3341 0 
L 2766 0 
L 2766 531 
Q 2569 213 2275 61 
Q 1981 -91 1556 -91 
Q 1019 -91 701 211 
Q 384 513 384 1019 
Q 384 1609 779 1909 
Q 1175 2209 1959 2209 
L 2766 2209 
L 2766 2266 
Q 2766 2663 2505 2880 
Q 2244 3097 1772 3097 
Q 1472 3097 1187 3025 
Q 903 2953 641 2809 
L 641 3341 
Q 956 3463 1253 3523 
Q 1550 3584 1831 3584 
Q 2591 3584 2966 3190 
Q 3341 2797 3341 1997 
z
" transform="scale(0.015625)"/>
      <path id="DejaVuSans-74" d="M 1172 4494 
L 1172 3500 
L 2356 3500 
L 2356 3053 
L 1172 3053 
L 1172 1153 
Q 1172 725 1289 603 
Q 1406 481 1766 481 
L 2356 481 
L 2356 0 
L 1766 0 
Q 1100 0 847 248 
Q 594 497 594 1153 
L 594 3053 
L 172 3053 
L 172 3500 
L 594 3500 
L 594 4494 
L 1172 4494 
z
" transform="scale(0.015625)"/>
      <path id="DejaVuSans-6c" d="M 603 4863 
L 1178 4863 
L 1178 0 
L 603 0 
L 603 4863 
z
" transform="scale(0.015625)"/>
      <path id="DejaVuSans-20" transform="scale(0.015625)"/>
      <path id="DejaVuSans-68" d="M 3513 2113 
L 3513 0 
L 2938 0 
L 2938 2094 
Q 2938 2591 2744 2837 
Q 2550 3084 2163 3084 
Q 1697 3084 1428 2787 
Q 1159 2491 1159 1978 
L 1159 0 
L 581 0 
L 581 4863 
L 1159 4863 
L 1159 2956 
Q 1366 3272 1645 3428 
Q 1925 3584 2291 3584 
Q 2894 3584 3203 3211 
Q 3513 2838 3513 2113 
z
" transform="scale(0.015625)"/>
      <path id="DejaVuSans-2d" d="M 313 2009 
L 1997 2009 
L 1997 1497 
L 313 1497 
L 313 2009 
z
" transform="scale(0.015625)"/>
      <path id="DejaVuSans-49" d="M 628 4666 
L 1259 4666 
L 1259 0 
L 628 0 
L 628 4666 
z
" transform="scale(0.015625)"/>
      <path id="DejaVuSans-4c" d="M 628 4666 
L 1259 4666 
L 1259 531 
L 3531 531 
L 3531 0 
L 628 0 
L 628 4666 
z
" transform="scale(0.015625)"/>
      <path id="DejaVuSans-41" d="M 2188 4044 
L 1331 1722 
L 3047 1722 
L 2188 4044 
z
M 1831 4666 
L 2547 4666 
L 4325 0 
L 3669 0 
L 3244 1197 
L 1141 1197 
L 716 0 
L 50 0 
L 1831 4666 
z
" transform="scale(0.015625)"/>
     </defs>
     <use xlink:href="#DejaVuSans-63"/>
     <use xlink:href="#DejaVuSans-6f" x="54.980469"/>
     <use xlink:href="#DejaVuSans-6d" x="116.162109"/>
     <use xlink:href="#DejaVuSans-62" x="213.574219"/>
     <use xlink:href="#DejaVuSans-69" x="277.050781"/>
     <use xlink:href="#DejaVuSans-6e" x="304.833984"/>
     <use xlink:href="#DejaVuSans-61" x="368.212891"/>
     <use xlink:href="#DejaVuSans-74" x="429.492188"/>
     <use xlink:href="#DejaVuSans-69" x="468.701172"/>
     <use xlink:href="#DejaVuSans-6f" x="496.484375"/>
     <use xlink:href="#DejaVuSans-6e" x="557.666016"/>
     <use xlink:href="#DejaVuSans-61" x="621.044922"/>
     <use xlink:href="#DejaVuSans-6c" x="682.324219"/>
     <use xlink:href="#DejaVuSans-20" x="710.107422"/>
     <use xlink:href="#DejaVuSans-6d" x="741.894531"/>
     <use xlink:href="#DejaVuSans-61" x="839.306641"/>
     <use xlink:href="#DejaVuSans-6e" x="900.585938"/>
     <use xlink:href="#DejaVuSans-68" x="963.964844"/>
     <use xlink:href="#DejaVuSans-61" x="1027.34375"/>
     <use xlink:href="#DejaVuSans-74" x="1088.623047"/>
     <use xlink:href="#DejaVuSans-74" x="1127.832031"/>
     <use xlink:href="#DejaVuSans-61" x="1167.041016"/>
     <use xlink:href="#DejaVuSans-6e" x="1228.320312"/>
     <use xlink:href="#DejaVuSans-20" x="1291.699219"/>
     <use xlink:href="#DejaVuSans-2d" x="1323.486328"/>
     <use xlink:href="#DejaVuSans-20" x="1359.570312"/>
     <use xlink:href="#DejaVuSans-49" x="1391.357422"/>
     <use xlink:href="#DejaVuSans-4c" x="1420.849609"/>
     <use xlink:href="#DejaVuSans-41" x="1478.8125"/>
    </g>
   </g>
   <g id="legend_1">
    <g id="patch_7">
     <path d="M 626.998438 48.874375 
L 702.2 48.874375 
Q 704.2 48.874375 704.2 46.874375 
L 704.2 32.918125 
Q 704.2 30.918125 702.2 30.918125 
L 626.998438 30.918125 
Q 624.998438 30.918125 624.998438 32.918125 
L 624.998438 46.874375 
Q 624.998438 48.874375 626.998438 48.874375 
z
" style="fill: #ffffff; opacity: 0.8; stroke: #cccccc; stroke-linejoin: miter"/>
    </g>
    <g id="patch_8">
     <path d="M 628.998438 42.516563 
L 648.998438 42.516563 
L 648.998438 35.516563 
L 628.998438 35.516563 
z
" style="fill: #0000ff; fill-opacity: 0.4; stroke: #0000ff; stroke-opacity: 0.4; stroke-linejoin: miter"/>
    </g>
    <g id="text_4">
     <!-- rx_ready -->
     <g transform="translate(656.998438 42.516563)scale(0.1 -0.1)">
      <defs>
       <path id="DejaVuSans-72" d="M 2631 2963 
Q 2534 3019 2420 3045 
Q 2306 3072 2169 3072 
Q 1681 3072 1420 2755 
Q 1159 2438 1159 1844 
L 1159 0 
L 581 0 
L 581 3500 
L 1159 3500 
L 1159 2956 
Q 1341 3275 1631 3429 
Q 1922 3584 2338 3584 
Q 2397 3584 2469 3576 
Q 2541 3569 2628 3553 
L 2631 2963 
z
" transform="scale(0.015625)"/>
       <path id="DejaVuSans-78" d="M 3513 3500 
L 2247 1797 
L 3578 0 
L 2900 0 
L 1881 1375 
L 863 0 
L 184 0 
L 1544 1831 
L 300 3500 
L 978 3500 
L 1906 2253 
L 2834 3500 
L 3513 3500 
z
" transform="scale(0.015625)"/>
       <path id="DejaVuSans-5f" d="M 3263 -1063 
L 3263 -1509 
L -63 -1509 
L -63 -1063 
L 3263 -1063 
z
" transform="scale(0.015625)"/>
       <path id="DejaVuSans-65" d="M 3597 1894 
L 3597 1613 
L 953 1613 
Q 991 1019 1311 708 
Q 1631 397 2203 397 
Q 2534 397 2845 478 
Q 3156 559 3463 722 
L 3463 178 
Q 3153 47 2828 -22 
Q 2503 -91 2169 -91 
Q 1331 -91 842 396 
Q 353 884 353 1716 
Q 353 2575 817 3079 
Q 1281 3584 2069 3584 
Q 2775 3584 3186 3129 
Q 3597 2675 3597 1894 
z
M 3022 2063 
Q 3016 2534 2758 2815 
Q 2500 3097 2075 3097 
Q 1594 3097 1305 2825 
Q 1016 2553 972 2059 
L 3022 2063 
z
" transform="scale(0.015625)"/>
       <path id="DejaVuSans-64" d="M 2906 2969 
L 2906 4863 
L 3481 4863 
L 3481 0 
L 2906 0 
L 2906 525 
Q 2725 213 2448 61 
Q 2172 -91 1784 -91 
Q 1150 -91 751 415 
Q 353 922 353 1747 
Q 353 2572 751 3078 
Q 1150 3584 1784 3584 
Q 2172 3584 2448 3432 
Q 2725 3281 2906 2969 
z
M 947 1747 
Q 947 1113 1208 752 
Q 1469 391 1925 391 
Q 2381 391 2643 752 
Q 2906 1113 2906 1747 
Q 2906 2381 2643 2742 
Q 2381 3103 1925 3103 
Q 1469 3103 1208 2742 
Q 947 2381 947 1747 
z
" transform="scale(0.015625)"/>
       <path id="DejaVuSans-79" d="M 2059 -325 
Q 1816 -950 1584 -1140 
Q 1353 -1331 966 -1331 
L 506 -1331 
L 506 -850 
L 844 -850 
Q 1081 -850 1212 -737 
Q 1344 -625 1503 -206 
L 1606 56 
L 191 3500 
L 800 3500 
L 1894 763 
L 2988 3500 
L 3597 3500 
L 2059 -325 
z
" transform="scale(0.015625)"/>
      </defs>
      <use xlink:href="#DejaVuSans-72"/>
      <use xlink:href="#DejaVuSans-78" x="38.488281"/>
      <use xlink:href="#DejaVuSans-5f" x="97.667969"/>
      <use xlink:href="#DejaVuSans-72" x="147.667969"/>
      <use xlink:href="#DejaVuSans-65" x="186.53125"/>
      <use xlink:href="#DejaVuSans-61" x="248.054688"/>
      <use xlink:href="#DejaVuSans-64" x="309.333984"/>
      <use xlink:href="#DejaVuSans-79" x="372.810547"/>
     </g>
    </g>
   </g>
  </g>
  <g id="axes_2">
   <g id="patch_9">
    <path d="M 24.1625 164.674214 
L 709.2 164.674214 
L 709.2 103.002893 
L 24.1625 103.002893 
z
" style="fill: #ffffff"/>
   </g>
   <g id="PolyCollection_2">
    <defs>
     <path id="mc9d694bce0" d="M 55.300568 -198.129028 
L 55.300568 -198.129028 
L 55.300568 -198.129028 
L 96.817992 -198.129028 
L 96.817992 -198.129028 
L 138.335417 -198.129028 
L 138.335417 -254.193865 
L 179.852841 -254.193865 
L 179.852841 -254.193865 
L 221.370265 -254.193865 
L 221.370265 -254.193865 
L 262.887689 -254.193865 
L 262.887689 -254.193865 
L 304.405114 -254.193865 
L 304.405114 -254.193865 
L 345.922538 -254.193865 
L 345.922538 -254.193865 
L 387.439962 -254.193865 
L 387.439962 -254.193865 
L 428.957386 -254.193865 
L 428.957386 -254.193865 
L 470.474811 -254.193865 
L 470.474811 -254.193865 
L 511.992235 -254.193865 
L 511.992235 -254.193865 
L 553.509659 -254.193865 
L 553.509659 -254.193865 
L 595.027083 -254.193865 
L 595.027083 -254.193865 
L 636.544508 -254.193865 
L 636.544508 -254.193865 
L 678.061932 -254.193865 
L 678.061932 -198.129028 
L 678.061932 -198.129028 
L 636.544508 -198.129028 
L 636.544508 -198.129028 
L 595.027083 -198.129028 
L 595.027083 -198.129028 
L 553.509659 -198.129028 
L 553.509659 -198.129028 
L 511.992235 -198.129028 
L 511.992235 -198.129028 
L 470.474811 -198.129028 
L 470.474811 -198.129028 
L 428.957386 -198.129028 
L 428.957386 -198.129028 
L 387.439962 -198.129028 
L 387.439962 -198.129028 
L 345.922538 -198.129028 
L 345.922538 -198.129028 
L 304.405114 -198.129028 
L 304.405114 -198.129028 
L 262.887689 -198.129028 
L 262.887689 -198.129028 
L 221.370265 -198.129028 
L 221.370265 -198.129028 
L 179.852841 -198.129028 
L 179.852841 -198.129028 
L 138.335417 -198.129028 
L 138.335417 -198.129028 
L 96.817992 -198.129028 
L 96.817992 -198.129028 
L 55.300568 -198.129028 
L 55.300568 -198.129028 
z
" style="stroke: #0000ff; stroke-opacity: 0.4"/>
    </defs>
    <g clip-path="url(#p029c5e0510)">
     <use xlink:href="#mc9d694bce0" x="0" y="360" style="fill: #0000ff; fill-opacity: 0.4; stroke: #0000ff; stroke-opacity: 0.4"/>
    </g>
   </g>
   <g id="matplotlib.axis_3">
    <g id="xtick_17">
     <g id="line2d_20">
      <g>
       <use xlink:href="#ma9560e8a28" x="55.300568" y="164.674214" style="stroke: #000000; stroke-width: 0.8"/>
      </g>
     </g>
    </g>
    <g id="xtick_18">
     <g id="line2d_21">
      <g>
       <use xlink:href="#ma9560e8a28" x="96.817992" y="164.674214" style="stroke: #000000; stroke-width: 0.8"/>
      </g>
     </g>
    </g>
    <g id="xtick_19">
     <g id="line2d_22">
      <g>
       <use xlink:href="#ma9560e8a28" x="138.335417" y="164.674214" style="stroke: #000000; stroke-width: 0.8"/>
      </g>
     </g>
    </g>
    <g id="xtick_20">
     <g id="line2d_23">
      <g>
       <use xlink:href="#ma9560e8a28" x="179.852841" y="164.674214" style="stroke: #000000; stroke-width: 0.8"/>
      </g>
     </g>
    </g>
    <g id="xtick_21">
     <g id="line2d_24">
      <g>
       <use xlink:href="#ma9560e8a28" x="221.370265" y="164.674214" style="stroke: #000000; stroke-width: 0.8"/>
      </g>
     </g>
    </g>
    <g id="xtick_22">
     <g id="line2d_25">
      <g>
       <use xlink:href="#ma9560e8a28" x="262.887689" y="164.674214" style="stroke: #000000; stroke-width: 0.8"/>
      </g>
     </g>
    </g>
    <g id="xtick_23">
     <g id="line2d_26">
      <g>
       <use xlink:href="#ma9560e8a28" x="304.405114" y="164.674214" style="stroke: #000000; stroke-width: 0.8"/>
      </g>
     </g>
    </g>
    <g id="xtick_24">
     <g id="line2d_27">
      <g>
       <use xlink:href="#ma9560e8a28" x="345.922538" y="164.674214" style="stroke: #000000; stroke-width: 0.8"/>
      </g>
     </g>
    </g>
    <g id="xtick_25">
     <g id="line2d_28">
      <g>
       <use xlink:href="#ma9560e8a28" x="387.439962" y="164.674214" style="stroke: #000000; stroke-width: 0.8"/>
      </g>
     </g>
    </g>
    <g id="xtick_26">
     <g id="line2d_29">
      <g>
       <use xlink:href="#ma9560e8a28" x="428.957386" y="164.674214" style="stroke: #000000; stroke-width: 0.8"/>
      </g>
     </g>
    </g>
    <g id="xtick_27">
     <g id="line2d_30">
      <g>
       <use xlink:href="#ma9560e8a28" x="470.474811" y="164.674214" style="stroke: #000000; stroke-width: 0.8"/>
      </g>
     </g>
    </g>
    <g id="xtick_28">
     <g id="line2d_31">
      <g>
       <use xlink:href="#ma9560e8a28" x="511.992235" y="164.674214" style="stroke: #000000; stroke-width: 0.8"/>
      </g>
     </g>
    </g>
    <g id="xtick_29">
     <g id="line2d_32">
      <g>
       <use xlink:href="#ma9560e8a28" x="553.509659" y="164.674214" style="stroke: #000000; stroke-width: 0.8"/>
      </g>
     </g>
    </g>
    <g id="xtick_30">
     <g id="line2d_33">
      <g>
       <use xlink:href="#ma9560e8a28" x="595.027083" y="164.674214" style="stroke: #000000; stroke-width: 0.8"/>
      </g>
     </g>
    </g>
    <g id="xtick_31">
     <g id="line2d_34">
      <g>
       <use xlink:href="#ma9560e8a28" x="636.544508" y="164.674214" style="stroke: #000000; stroke-width: 0.8"/>
      </g>
     </g>
    </g>
    <g id="xtick_32">
     <g id="line2d_35">
      <g>
       <use xlink:href="#ma9560e8a28" x="678.061932" y="164.674214" style="stroke: #000000; stroke-width: 0.8"/>
      </g>
     </g>
    </g>
   </g>
   <g id="matplotlib.axis_4">
    <g id="ytick_3">
     <g id="line2d_36">
      <g>
       <use xlink:href="#m20ad4d90dd" x="24.1625" y="161.870972" style="stroke: #000000; stroke-width: 0.8"/>
      </g>
     </g>
     <g id="text_5">
      <!-- 0 -->
      <g transform="translate(10.8 165.67019)scale(0.1 -0.1)">
       <use xlink:href="#DejaVuSans-30"/>
      </g>
     </g>
    </g>
    <g id="ytick_4">
     <g id="line2d_37">
      <g>
       <use xlink:href="#m20ad4d90dd" x="24.1625" y="105.806135" style="stroke: #000000; stroke-width: 0.8"/>
      </g>
     </g>
     <g id="text_6">
      <!-- 1 -->
      <g transform="translate(10.8 109.605354)scale(0.1 -0.1)">
       <use xlink:href="#DejaVuSans-31"/>
      </g>
     </g>
    </g>
   </g>
   <g id="line2d_38">
    <path d="M 55.300568 161.870972 
L 55.300568 161.870972 
L 96.817992 161.870972 
L 96.817992 161.870972 
L 138.335417 161.870972 
L 138.335417 105.806135 
L 179.852841 105.806135 
L 179.852841 105.806135 
L 221.370265 105.806135 
L 221.370265 105.806135 
L 262.887689 105.806135 
L 262.887689 105.806135 
L 304.405114 105.806135 
L 304.405114 105.806135 
L 345.922538 105.806135 
L 345.922538 105.806135 
L 387.439962 105.806135 
L 387.439962 105.806135 
L 428.957386 105.806135 
L 428.957386 105.806135 
L 470.474811 105.806135 
L 470.474811 105.806135 
L 511.992235 105.806135 
L 511.992235 105.806135 
L 553.509659 105.806135 
L 553.509659 105.806135 
L 595.027083 105.806135 
L 595.027083 105.806135 
L 636.544508 105.806135 
L 636.544508 105.806135 
L 678.061932 105.806135 
" clip-path="url(#p029c5e0510)" style="fill: none; stroke: #0000ff; stroke-width: 1.5; stroke-linecap: square"/>
   </g>
   <g id="patch_10">
    <path d="M 24.1625 164.674214 
L 24.1625 103.002893 
" style="fill: none; stroke: #000000; stroke-width: 0.8; stroke-linejoin: miter; stroke-linecap: square"/>
   </g>
   <g id="patch_11">
    <path d="M 709.2 164.674214 
L 709.2 103.002893 
" style="fill: none; stroke: #000000; stroke-width: 0.8; stroke-linejoin: miter; stroke-linecap: square"/>
   </g>
   <g id="patch_12">
    <path d="M 24.1625 164.674214 
L 709.2 164.674214 
" style="fill: none; stroke: #000000; stroke-width: 0.8; stroke-linejoin: miter; stroke-linecap: square"/>
   </g>
   <g id="patch_13">
    <path d="M 24.1625 103.002893 
L 709.2 103.002893 
" style="fill: none; stroke: #000000; stroke-width: 0.8; stroke-linejoin: miter; stroke-linecap: square"/>
   </g>
   <g id="legend_2">
    <g id="patch_14">
     <path d="M 630.184375 125.959143 
L 702.2 125.959143 
Q 704.2 125.959143 704.2 123.959143 
L 704.2 110.002893 
Q 704.2 108.002893 702.2 108.002893 
L 630.184375 108.002893 
Q 628.184375 108.002893 628.184375 110.002893 
L 628.184375 123.959143 
Q 628.184375 125.959143 630.184375 125.959143 
z
" style="fill: #ffffff; opacity: 0.8; stroke: #cccccc; stroke-linejoin: miter"/>
    </g>
    <g id="patch_15">
     <path d="M 632.184375 119.601331 
L 652.184375 119.601331 
L 652.184375 112.601331 
L 632.184375 112.601331 
z
" style="fill: #0000ff; fill-opacity: 0.4; stroke: #0000ff; stroke-opacity: 0.4; stroke-linejoin: miter"/>
    </g>
    <g id="text_7">
     <!-- en_data -->
     <g transform="translate(660.184375 119.601331)scale(0.1 -0.1)">
      <use xlink:href="#DejaVuSans-65"/>
      <use xlink:href="#DejaVuSans-6e" x="61.523438"/>
      <use xlink:href="#DejaVuSans-5f" x="124.902344"/>
      <use xlink:href="#DejaVuSans-64" x="174.902344"/>
      <use xlink:href="#DejaVuSans-61" x="238.378906"/>
      <use xlink:href="#DejaVuSans-74" x="299.658203"/>
      <use xlink:href="#DejaVuSans-61" x="338.867188"/>
     </g>
    </g>
   </g>
  </g>
  <g id="axes_3">
   <g id="patch_16">
    <path d="M 24.1625 241.758982 
L 709.2 241.758982 
L 709.2 180.087661 
L 24.1625 180.087661 
z
" style="fill: #ffffff"/>
   </g>
   <g id="PolyCollection_3">
    <defs>
     <path id="md2cb472b3c" d="M 55.300568 -121.04426 
L 55.300568 -121.04426 
L 55.300568 -121.04426 
L 96.817992 -121.04426 
L 96.817992 -121.04426 
L 138.335417 -121.04426 
L 138.335417 -121.04426 
L 179.852841 -121.04426 
L 179.852841 -177.109097 
L 221.370265 -177.109097 
L 221.370265 -121.04426 
L 262.887689 -121.04426 
L 262.887689 -121.04426 
L 304.405114 -121.04426 
L 304.405114 -121.04426 
L 345.922538 -121.04426 
L 345.922538 -121.04426 
L 387.439962 -121.04426 
L 387.439962 -121.04426 
L 428.957386 -121.04426 
L 428.957386 -121.04426 
L 470.474811 -121.04426 
L 470.474811 -121.04426 
L 511.992235 -121.04426 
L 511.992235 -121.04426 
L 553.509659 -121.04426 
L 553.509659 -121.04426 
L 595.027083 -121.04426 
L 595.027083 -121.04426 
L 636.544508 -121.04426 
L 636.544508 -121.04426 
L 678.061932 -121.04426 
L 678.061932 -121.04426 
L 678.061932 -121.04426 
L 636.544508 -121.04426 
L 636.544508 -121.04426 
L 595.027083 -121.04426 
L 595.027083 -121.04426 
L 553.509659 -121.04426 
L 553.509659 -121.04426 
L 511.992235 -121.04426 
L 511.992235 -121.04426 
L 470.474811 -121.04426 
L 470.474811 -121.04426 
L 428.957386 -121.04426 
L 428.957386 -121.04426 
L 387.439962 -121.04426 
L 387.439962 -121.04426 
L 345.922538 -121.04426 
L 345.922538 -121.04426 
L 304.405114 -121.04426 
L 304.405114 -121.04426 
L 262.887689 -121.04426 
L 262.887689 -121.04426 
L 221.370265 -121.04426 
L 221.370265 -121.04426 
L 179.852841 -121.04426 
L 179.852841 -121.04426 
L 138.335417 -121.04426 
L 138.335417 -121.04426 
L 96.817992 -121.04426 
L 96.817992 -121.04426 
L 55.300568 -121.04426 
L 55.300568 -121.04426 
z
" style="stroke: #0000ff; stroke-opacity: 0.4"/>
    </defs>
    <g clip-path="url(#pbbd982816f)">
     <use xlink:href="#md2cb472b3c" x="0" y="360" style="fill: #0000ff; fill-opacity: 0.4; stroke: #0000ff; stroke-opacity: 0.4"/>
    </g>
   </g>
   <g id="matplotlib.axis_5">
    <g id="xtick_33">
     <g id="line2d_39">
      <g>
       <use xlink:href="#ma9560e8a28" x="55.300568" y="241.758982" style="stroke: #000000; stroke-width: 0.8"/>
      </g>
     </g>
    </g>
    <g id="xtick_34">
     <g id="line2d_40">
      <g>
       <use xlink:href="#ma9560e8a28" x="96.817992" y="241.758982" style="stroke: #000000; stroke-width: 0.8"/>
      </g>
     </g>
    </g>
    <g id="xtick_35">
     <g id="line2d_41">
      <g>
       <use xlink:href="#ma9560e8a28" x="138.335417" y="241.758982" style="stroke: #000000; stroke-width: 0.8"/>
      </g>
     </g>
    </g>
    <g id="xtick_36">
     <g id="line2d_42">
      <g>
       <use xlink:href="#ma9560e8a28" x="179.852841" y="241.758982" style="stroke: #000000; stroke-width: 0.8"/>
      </g>
     </g>
    </g>
    <g id="xtick_37">
     <g id="line2d_43">
      <g>
       <use xlink:href="#ma9560e8a28" x="221.370265" y="241.758982" style="stroke: #000000; stroke-width: 0.8"/>
      </g>
     </g>
    </g>
    <g id="xtick_38">
     <g id="line2d_44">
      <g>
       <use xlink:href="#ma9560e8a28" x="262.887689" y="241.758982" style="stroke: #000000; stroke-width: 0.8"/>
      </g>
     </g>
    </g>
    <g id="xtick_39">
     <g id="line2d_45">
      <g>
       <use xlink:href="#ma9560e8a28" x="304.405114" y="241.758982" style="stroke: #000000; stroke-width: 0.8"/>
      </g>
     </g>
    </g>
    <g id="xtick_40">
     <g id="line2d_46">
      <g>
       <use xlink:href="#ma9560e8a28" x="345.922538" y="241.758982" style="stroke: #000000; stroke-width: 0.8"/>
      </g>
     </g>
    </g>
    <g id="xtick_41">
     <g id="line2d_47">
      <g>
       <use xlink:href="#ma9560e8a28" x="387.439962" y="241.758982" style="stroke: #000000; stroke-width: 0.8"/>
      </g>
     </g>
    </g>
    <g id="xtick_42">
     <g id="line2d_48">
      <g>
       <use xlink:href="#ma9560e8a28" x="428.957386" y="241.758982" style="stroke: #000000; stroke-width: 0.8"/>
      </g>
     </g>
    </g>
    <g id="xtick_43">
     <g id="line2d_49">
      <g>
       <use xlink:href="#ma9560e8a28" x="470.474811" y="241.758982" style="stroke: #000000; stroke-width: 0.8"/>
      </g>
     </g>
    </g>
    <g id="xtick_44">
     <g id="line2d_50">
      <g>
       <use xlink:href="#ma9560e8a28" x="511.992235" y="241.758982" style="stroke: #000000; stroke-width: 0.8"/>
      </g>
     </g>
    </g>
    <g id="xtick_45">
     <g id="line2d_51">
      <g>
       <use xlink:href="#ma9560e8a28" x="553.509659" y="241.758982" style="stroke: #000000; stroke-width: 0.8"/>
      </g>
     </g>
    </g>
    <g id="xtick_46">
     <g id="line2d_52">
      <g>
       <use xlink:href="#ma9560e8a28" x="595.027083" y="241.758982" style="stroke: #000000; stroke-width: 0.8"/>
      </g>
     </g>
    </g>
    <g id="xtick_47">
     <g id="line2d_53">
      <g>
       <use xlink:href="#ma9560e8a28" x="636.544508" y="241.758982" style="stroke: #000000; stroke-width: 0.8"/>
      </g>
     </g>
    </g>
    <g id="xtick_48">
     <g id="line2d_54">
      <g>
       <use xlink:href="#ma9560e8a28" x="678.061932" y="241.758982" style="stroke: #000000; stroke-width: 0.8"/>
      </g>
     </g>
    </g>
   </g>
   <g id="matplotlib.axis_6">
    <g id="ytick_5">
     <g id="line2d_55">
      <g>
       <use xlink:href="#m20ad4d90dd" x="24.1625" y="238.95574" style="stroke: #000000; stroke-width: 0.8"/>
      </g>
     </g>
     <g id="text_8">
      <!-- 0 -->
      <g transform="translate(10.8 242.754959)scale(0.1 -0.1)">
       <use xlink:href="#DejaVuSans-30"/>
      </g>
     </g>
    </g>
    <g id="ytick_6">
     <g id="line2d_56">
      <g>
       <use xlink:href="#m20ad4d90dd" x="24.1625" y="182.890903" style="stroke: #000000; stroke-width: 0.8"/>
      </g>
     </g>
     <g id="text_9">
      <!-- 1 -->
      <g transform="translate(10.8 186.690122)scale(0.1 -0.1)">
       <use xlink:href="#DejaVuSans-31"/>
      </g>
     </g>
    </g>
   </g>
   <g id="line2d_57">
    <path d="M 55.300568 238.95574 
L 55.300568 238.95574 
L 96.817992 238.95574 
L 96.817992 238.95574 
L 138.335417 238.95574 
L 138.335417 238.95574 
L 179.852841 238.95574 
L 179.852841 182.890903 
L 221.370265 182.890903 
L 221.370265 238.95574 
L 262.887689 238.95574 
L 262.887689 238.95574 
L 304.405114 238.95574 
L 304.405114 238.95574 
L 345.922538 238.95574 
L 345.922538 238.95574 
L 387.439962 238.95574 
L 387.439962 238.95574 
L 428.957386 238.95574 
L 428.957386 238.95574 
L 470.474811 238.95574 
L 470.474811 238.95574 
L 511.992235 238.95574 
L 511.992235 238.95574 
L 553.509659 238.95574 
L 553.509659 238.95574 
L 595.027083 238.95574 
L 595.027083 238.95574 
L 636.544508 238.95574 
L 636.544508 238.95574 
L 678.061932 238.95574 
" clip-path="url(#pbbd982816f)" style="fill: none; stroke: #0000ff; stroke-width: 1.5; stroke-linecap: square"/>
   </g>
   <g id="patch_17">
    <path d="M 24.1625 241.758982 
L 24.1625 180.087661 
" style="fill: none; stroke: #000000; stroke-width: 0.8; stroke-linejoin: miter; stroke-linecap: square"/>
   </g>
   <g id="patch_18">
    <path d="M 709.2 241.758982 
L 709.2 180.087661 
" style="fill: none; stroke: #000000; stroke-width: 0.8; stroke-linejoin: miter; stroke-linecap: square"/>
   </g>
   <g id="patch_19">
    <path d="M 24.1625 241.758982 
L 709.2 241.758982 
" style="fill: none; stroke: #000000; stroke-width: 0.8; stroke-linejoin: miter; stroke-linecap: square"/>
   </g>
   <g id="patch_20">
    <path d="M 24.1625 180.087661 
L 709.2 180.087661 
" style="fill: none; stroke: #000000; stroke-width: 0.8; stroke-linejoin: miter; stroke-linecap: square"/>
   </g>
   <g id="legend_3">
    <g id="patch_21">
     <path d="M 603.032813 202.765786 
L 702.2 202.765786 
Q 704.2 202.765786 704.2 200.765786 
L 704.2 187.087661 
Q 704.2 185.087661 702.2 185.087661 
L 603.032813 185.087661 
Q 601.032813 185.087661 601.032813 187.087661 
L 601.032813 200.765786 
Q 601.032813 202.765786 603.032813 202.765786 
z
" style="fill: #ffffff; opacity: 0.8; stroke: #cccccc; stroke-linejoin: miter"/>
    </g>
    <g id="patch_22">
     <path d="M 605.032813 196.686099 
L 625.032813 196.686099 
L 625.032813 189.686099 
L 605.032813 189.686099 
z
" style="fill: #0000ff; fill-opacity: 0.4; stroke: #0000ff; stroke-opacity: 0.4; stroke-linejoin: miter"/>
    </g>
    <g id="text_10">
     <!-- writeOut[0:0] -->
     <g transform="translate(633.032813 196.686099)scale(0.1 -0.1)">
      <defs>
       <path id="DejaVuSans-77" d="M 269 3500 
L 844 3500 
L 1563 769 
L 2278 3500 
L 2956 3500 
L 3675 769 
L 4391 3500 
L 4966 3500 
L 4050 0 
L 3372 0 
L 2619 2869 
L 1863 0 
L 1184 0 
L 269 3500 
z
" transform="scale(0.015625)"/>
       <path id="DejaVuSans-4f" d="M 2522 4238 
Q 1834 4238 1429 3725 
Q 1025 3213 1025 2328 
Q 1025 1447 1429 934 
Q 1834 422 2522 422 
Q 3209 422 3611 934 
Q 4013 1447 4013 2328 
Q 4013 3213 3611 3725 
Q 3209 4238 2522 4238 
z
M 2522 4750 
Q 3503 4750 4090 4092 
Q 4678 3434 4678 2328 
Q 4678 1225 4090 567 
Q 3503 -91 2522 -91 
Q 1538 -91 948 565 
Q 359 1222 359 2328 
Q 359 3434 948 4092 
Q 1538 4750 2522 4750 
z
" transform="scale(0.015625)"/>
       <path id="DejaVuSans-75" d="M 544 1381 
L 544 3500 
L 1119 3500 
L 1119 1403 
Q 1119 906 1312 657 
Q 1506 409 1894 409 
Q 2359 409 2629 706 
Q 2900 1003 2900 1516 
L 2900 3500 
L 3475 3500 
L 3475 0 
L 2900 0 
L 2900 538 
Q 2691 219 2414 64 
Q 2138 -91 1772 -91 
Q 1169 -91 856 284 
Q 544 659 544 1381 
z
M 1991 3584 
L 1991 3584 
z
" transform="scale(0.015625)"/>
       <path id="DejaVuSans-5b" d="M 550 4863 
L 1875 4863 
L 1875 4416 
L 1125 4416 
L 1125 -397 
L 1875 -397 
L 1875 -844 
L 550 -844 
L 550 4863 
z
" transform="scale(0.015625)"/>
       <path id="DejaVuSans-3a" d="M 750 794 
L 1409 794 
L 1409 0 
L 750 0 
L 750 794 
z
M 750 3309 
L 1409 3309 
L 1409 2516 
L 750 2516 
L 750 3309 
z
" transform="scale(0.015625)"/>
       <path id="DejaVuSans-5d" d="M 1947 4863 
L 1947 -844 
L 622 -844 
L 622 -397 
L 1369 -397 
L 1369 4416 
L 622 4416 
L 622 4863 
L 1947 4863 
z
" transform="scale(0.015625)"/>
      </defs>
      <use xlink:href="#DejaVuSans-77"/>
      <use xlink:href="#DejaVuSans-72" x="81.787109"/>
      <use xlink:href="#DejaVuSans-69" x="122.900391"/>
      <use xlink:href="#DejaVuSans-74" x="150.683594"/>
      <use xlink:href="#DejaVuSans-65" x="189.892578"/>
      <use xlink:href="#DejaVuSans-4f" x="251.416016"/>
      <use xlink:href="#DejaVuSans-75" x="330.126953"/>
      <use xlink:href="#DejaVuSans-74" x="393.505859"/>
      <use xlink:href="#DejaVuSans-5b" x="432.714844"/>
      <use xlink:href="#DejaVuSans-30" x="471.728516"/>
      <use xlink:href="#DejaVuSans-3a" x="535.351562"/>
      <use xlink:href="#DejaVuSans-30" x="569.042969"/>
      <use xlink:href="#DejaVuSans-5d" x="632.666016"/>
     </g>
    </g>
   </g>
  </g>
  <g id="axes_4">
   <g id="patch_23">
    <path d="M 24.1625 318.84375 
L 709.2 318.84375 
L 709.2 257.17243 
L 24.1625 257.17243 
z
" style="fill: #ffffff"/>
   </g>
   <g id="PolyCollection_4">
    <defs>
     <path id="mdbd945859b" d="M 55.300568 -43.959492 
L 55.300568 -43.959492 
L 55.300568 -43.959492 
L 96.817992 -43.959492 
L 96.817992 -43.959492 
L 138.335417 -43.959492 
L 138.335417 -43.959492 
L 179.852841 -43.959492 
L 179.852841 -43.959492 
L 221.370265 -43.959492 
L 221.370265 -100.024328 
L 262.887689 -100.024328 
L 262.887689 -43.959492 
L 304.405114 -43.959492 
L 304.405114 -43.959492 
L 345.922538 -43.959492 
L 345.922538 -43.959492 
L 387.439962 -43.959492 
L 387.439962 -43.959492 
L 428.957386 -43.959492 
L 428.957386 -43.959492 
L 470.474811 -43.959492 
L 470.474811 -43.959492 
L 511.992235 -43.959492 
L 511.992235 -43.959492 
L 553.509659 -43.959492 
L 553.509659 -43.959492 
L 595.027083 -43.959492 
L 595.027083 -43.959492 
L 636.544508 -43.959492 
L 636.544508 -43.959492 
L 678.061932 -43.959492 
L 678.061932 -43.959492 
L 678.061932 -43.959492 
L 636.544508 -43.959492 
L 636.544508 -43.959492 
L 595.027083 -43.959492 
L 595.027083 -43.959492 
L 553.509659 -43.959492 
L 553.509659 -43.959492 
L 511.992235 -43.959492 
L 511.992235 -43.959492 
L 470.474811 -43.959492 
L 470.474811 -43.959492 
L 428.957386 -43.959492 
L 428.957386 -43.959492 
L 387.439962 -43.959492 
L 387.439962 -43.959492 
L 345.922538 -43.959492 
L 345.922538 -43.959492 
L 304.405114 -43.959492 
L 304.405114 -43.959492 
L 262.887689 -43.959492 
L 262.887689 -43.959492 
L 221.370265 -43.959492 
L 221.370265 -43.959492 
L 179.852841 -43.959492 
L 179.852841 -43.959492 
L 138.335417 -43.959492 
L 138.335417 -43.959492 
L 96.817992 -43.959492 
L 96.817992 -43.959492 
L 55.300568 -43.959492 
L 55.300568 -43.959492 
z
" style="stroke: #0000ff; stroke-opacity: 0.4"/>
    </defs>
    <g clip-path="url(#p9c9f55b016)">
     <use xlink:href="#mdbd945859b" x="0" y="360" style="fill: #0000ff; fill-opacity: 0.4; stroke: #0000ff; stroke-opacity: 0.4"/>
    </g>
   </g>
   <g id="matplotlib.axis_7">
    <g id="xtick_49">
     <g id="line2d_58">
      <g>
       <use xlink:href="#ma9560e8a28" x="55.300568" y="318.84375" style="stroke: #000000; stroke-width: 0.8"/>
      </g>
     </g>
     <g id="text_11">
      <!-- 0.0 -->
      <g transform="translate(47.349006 333.442188)scale(0.1 -0.1)">
       <defs>
        <path id="DejaVuSans-2e" d="M 684 794 
L 1344 794 
L 1344 0 
L 684 0 
L 684 794 
z
" transform="scale(0.015625)"/>
       </defs>
       <use xlink:href="#DejaVuSans-30"/>
       <use xlink:href="#DejaVuSans-2e" x="63.623047"/>
       <use xlink:href="#DejaVuSans-30" x="95.410156"/>
      </g>
     </g>
    </g>
    <g id="xtick_50">
     <g id="line2d_59">
      <g>
       <use xlink:href="#ma9560e8a28" x="96.817992" y="318.84375" style="stroke: #000000; stroke-width: 0.8"/>
      </g>
     </g>
     <g id="text_12">
      <!-- 33.3 -->
      <g transform="translate(85.68518 333.442188)scale(0.1 -0.1)">
       <defs>
        <path id="DejaVuSans-33" d="M 2597 2516 
Q 3050 2419 3304 2112 
Q 3559 1806 3559 1356 
Q 3559 666 3084 287 
Q 2609 -91 1734 -91 
Q 1441 -91 1130 -33 
Q 819 25 488 141 
L 488 750 
Q 750 597 1062 519 
Q 1375 441 1716 441 
Q 2309 441 2620 675 
Q 2931 909 2931 1356 
Q 2931 1769 2642 2001 
Q 2353 2234 1838 2234 
L 1294 2234 
L 1294 2753 
L 1863 2753 
Q 2328 2753 2575 2939 
Q 2822 3125 2822 3475 
Q 2822 3834 2567 4026 
Q 2313 4219 1838 4219 
Q 1578 4219 1281 4162 
Q 984 4106 628 3988 
L 628 4550 
Q 988 4650 1302 4700 
Q 1616 4750 1894 4750 
Q 2613 4750 3031 4423 
Q 3450 4097 3450 3541 
Q 3450 3153 3228 2886 
Q 3006 2619 2597 2516 
z
" transform="scale(0.015625)"/>
       </defs>
       <use xlink:href="#DejaVuSans-33"/>
       <use xlink:href="#DejaVuSans-33" x="63.623047"/>
       <use xlink:href="#DejaVuSans-2e" x="127.246094"/>
       <use xlink:href="#DejaVuSans-33" x="159.033203"/>
      </g>
     </g>
    </g>
    <g id="xtick_51">
     <g id="line2d_60">
      <g>
       <use xlink:href="#ma9560e8a28" x="138.335417" y="318.84375" style="stroke: #000000; stroke-width: 0.8"/>
      </g>
     </g>
     <g id="text_13">
      <!-- 66.7 -->
      <g transform="translate(127.202604 333.442188)scale(0.1 -0.1)">
       <defs>
        <path id="DejaVuSans-36" d="M 2113 2584 
Q 1688 2584 1439 2293 
Q 1191 2003 1191 1497 
Q 1191 994 1439 701 
Q 1688 409 2113 409 
Q 2538 409 2786 701 
Q 3034 994 3034 1497 
Q 3034 2003 2786 2293 
Q 2538 2584 2113 2584 
z
M 3366 4563 
L 3366 3988 
Q 3128 4100 2886 4159 
Q 2644 4219 2406 4219 
Q 1781 4219 1451 3797 
Q 1122 3375 1075 2522 
Q 1259 2794 1537 2939 
Q 1816 3084 2150 3084 
Q 2853 3084 3261 2657 
Q 3669 2231 3669 1497 
Q 3669 778 3244 343 
Q 2819 -91 2113 -91 
Q 1303 -91 875 529 
Q 447 1150 447 2328 
Q 447 3434 972 4092 
Q 1497 4750 2381 4750 
Q 2619 4750 2861 4703 
Q 3103 4656 3366 4563 
z
" transform="scale(0.015625)"/>
        <path id="DejaVuSans-37" d="M 525 4666 
L 3525 4666 
L 3525 4397 
L 1831 0 
L 1172 0 
L 2766 4134 
L 525 4134 
L 525 4666 
z
" transform="scale(0.015625)"/>
       </defs>
       <use xlink:href="#DejaVuSans-36"/>
       <use xlink:href="#DejaVuSans-36" x="63.623047"/>
       <use xlink:href="#DejaVuSans-2e" x="127.246094"/>
       <use xlink:href="#DejaVuSans-37" x="159.033203"/>
      </g>
     </g>
    </g>
    <g id="xtick_52">
     <g id="line2d_61">
      <g>
       <use xlink:href="#ma9560e8a28" x="179.852841" y="318.84375" style="stroke: #000000; stroke-width: 0.8"/>
      </g>
     </g>
     <g id="text_14">
      <!-- 100.0 -->
      <g transform="translate(165.538778 333.442188)scale(0.1 -0.1)">
       <use xlink:href="#DejaVuSans-31"/>
       <use xlink:href="#DejaVuSans-30" x="63.623047"/>
       <use xlink:href="#DejaVuSans-30" x="127.246094"/>
       <use xlink:href="#DejaVuSans-2e" x="190.869141"/>
       <use xlink:href="#DejaVuSans-30" x="222.65625"/>
      </g>
     </g>
    </g>
    <g id="xtick_53">
     <g id="line2d_62">
      <g>
       <use xlink:href="#ma9560e8a28" x="221.370265" y="318.84375" style="stroke: #000000; stroke-width: 0.8"/>
      </g>
     </g>
     <g id="text_15">
      <!-- 133.3 -->
      <g transform="translate(207.056203 333.442188)scale(0.1 -0.1)">
       <use xlink:href="#DejaVuSans-31"/>
       <use xlink:href="#DejaVuSans-33" x="63.623047"/>
       <use xlink:href="#DejaVuSans-33" x="127.246094"/>
       <use xlink:href="#DejaVuSans-2e" x="190.869141"/>
       <use xlink:href="#DejaVuSans-33" x="222.65625"/>
      </g>
     </g>
    </g>
    <g id="xtick_54">
     <g id="line2d_63">
      <g>
       <use xlink:href="#ma9560e8a28" x="262.887689" y="318.84375" style="stroke: #000000; stroke-width: 0.8"/>
      </g>
     </g>
     <g id="text_16">
      <!-- 166.7 -->
      <g transform="translate(248.573627 333.442188)scale(0.1 -0.1)">
       <use xlink:href="#DejaVuSans-31"/>
       <use xlink:href="#DejaVuSans-36" x="63.623047"/>
       <use xlink:href="#DejaVuSans-36" x="127.246094"/>
       <use xlink:href="#DejaVuSans-2e" x="190.869141"/>
       <use xlink:href="#DejaVuSans-37" x="222.65625"/>
      </g>
     </g>
    </g>
    <g id="xtick_55">
     <g id="line2d_64">
      <g>
       <use xlink:href="#ma9560e8a28" x="304.405114" y="318.84375" style="stroke: #000000; stroke-width: 0.8"/>
      </g>
     </g>
     <g id="text_17">
      <!-- 200.0 -->
      <g transform="translate(290.091051 333.442188)scale(0.1 -0.1)">
       <defs>
        <path id="DejaVuSans-32" d="M 1228 531 
L 3431 531 
L 3431 0 
L 469 0 
L 469 531 
Q 828 903 1448 1529 
Q 2069 2156 2228 2338 
Q 2531 2678 2651 2914 
Q 2772 3150 2772 3378 
Q 2772 3750 2511 3984 
Q 2250 4219 1831 4219 
Q 1534 4219 1204 4116 
Q 875 4013 500 3803 
L 500 4441 
Q 881 4594 1212 4672 
Q 1544 4750 1819 4750 
Q 2544 4750 2975 4387 
Q 3406 4025 3406 3419 
Q 3406 3131 3298 2873 
Q 3191 2616 2906 2266 
Q 2828 2175 2409 1742 
Q 1991 1309 1228 531 
z
" transform="scale(0.015625)"/>
       </defs>
       <use xlink:href="#DejaVuSans-32"/>
       <use xlink:href="#DejaVuSans-30" x="63.623047"/>
       <use xlink:href="#DejaVuSans-30" x="127.246094"/>
       <use xlink:href="#DejaVuSans-2e" x="190.869141"/>
       <use xlink:href="#DejaVuSans-30" x="222.65625"/>
      </g>
     </g>
    </g>
    <g id="xtick_56">
     <g id="line2d_65">
      <g>
       <use xlink:href="#ma9560e8a28" x="345.922538" y="318.84375" style="stroke: #000000; stroke-width: 0.8"/>
      </g>
     </g>
     <g id="text_18">
      <!-- 233.3 -->
      <g transform="translate(331.608475 333.442188)scale(0.1 -0.1)">
       <use xlink:href="#DejaVuSans-32"/>
       <use xlink:href="#DejaVuSans-33" x="63.623047"/>
       <use xlink:href="#DejaVuSans-33" x="127.246094"/>
       <use xlink:href="#DejaVuSans-2e" x="190.869141"/>
       <use xlink:href="#DejaVuSans-33" x="222.65625"/>
      </g>
     </g>
    </g>
    <g id="xtick_57">
     <g id="line2d_66">
      <g>
       <use xlink:href="#ma9560e8a28" x="387.439962" y="318.84375" style="stroke: #000000; stroke-width: 0.8"/>
      </g>
     </g>
     <g id="text_19">
      <!-- 266.7 -->
      <g transform="translate(373.1259 333.442188)scale(0.1 -0.1)">
       <use xlink:href="#DejaVuSans-32"/>
       <use xlink:href="#DejaVuSans-36" x="63.623047"/>
       <use xlink:href="#DejaVuSans-36" x="127.246094"/>
       <use xlink:href="#DejaVuSans-2e" x="190.869141"/>
       <use xlink:href="#DejaVuSans-37" x="222.65625"/>
      </g>
     </g>
    </g>
    <g id="xtick_58">
     <g id="line2d_67">
      <g>
       <use xlink:href="#ma9560e8a28" x="428.957386" y="318.84375" style="stroke: #000000; stroke-width: 0.8"/>
      </g>
     </g>
     <g id="text_20">
      <!-- 300.0 -->
      <g transform="translate(414.643324 333.442188)scale(0.1 -0.1)">
       <use xlink:href="#DejaVuSans-33"/>
       <use xlink:href="#DejaVuSans-30" x="63.623047"/>
       <use xlink:href="#DejaVuSans-30" x="127.246094"/>
       <use xlink:href="#DejaVuSans-2e" x="190.869141"/>
       <use xlink:href="#DejaVuSans-30" x="222.65625"/>
      </g>
     </g>
    </g>
    <g id="xtick_59">
     <g id="line2d_68">
      <g>
       <use xlink:href="#ma9560e8a28" x="470.474811" y="318.84375" style="stroke: #000000; stroke-width: 0.8"/>
      </g>
     </g>
     <g id="text_21">
      <!-- 333.3 -->
      <g transform="translate(456.160748 333.442188)scale(0.1 -0.1)">
       <use xlink:href="#DejaVuSans-33"/>
       <use xlink:href="#DejaVuSans-33" x="63.623047"/>
       <use xlink:href="#DejaVuSans-33" x="127.246094"/>
       <use xlink:href="#DejaVuSans-2e" x="190.869141"/>
       <use xlink:href="#DejaVuSans-33" x="222.65625"/>
      </g>
     </g>
    </g>
    <g id="xtick_60">
     <g id="line2d_69">
      <g>
       <use xlink:href="#ma9560e8a28" x="511.992235" y="318.84375" style="stroke: #000000; stroke-width: 0.8"/>
      </g>
     </g>
     <g id="text_22">
      <!-- 366.7 -->
      <g transform="translate(497.678172 333.442188)scale(0.1 -0.1)">
       <use xlink:href="#DejaVuSans-33"/>
       <use xlink:href="#DejaVuSans-36" x="63.623047"/>
       <use xlink:href="#DejaVuSans-36" x="127.246094"/>
       <use xlink:href="#DejaVuSans-2e" x="190.869141"/>
       <use xlink:href="#DejaVuSans-37" x="222.65625"/>
      </g>
     </g>
    </g>
    <g id="xtick_61">
     <g id="line2d_70">
      <g>
       <use xlink:href="#ma9560e8a28" x="553.509659" y="318.84375" style="stroke: #000000; stroke-width: 0.8"/>
      </g>
     </g>
     <g id="text_23">
      <!-- 400.0 -->
      <g transform="translate(539.195597 333.442188)scale(0.1 -0.1)">
       <defs>
        <path id="DejaVuSans-34" d="M 2419 4116 
L 825 1625 
L 2419 1625 
L 2419 4116 
z
M 2253 4666 
L 3047 4666 
L 3047 1625 
L 3713 1625 
L 3713 1100 
L 3047 1100 
L 3047 0 
L 2419 0 
L 2419 1100 
L 313 1100 
L 313 1709 
L 2253 4666 
z
" transform="scale(0.015625)"/>
       </defs>
       <use xlink:href="#DejaVuSans-34"/>
       <use xlink:href="#DejaVuSans-30" x="63.623047"/>
       <use xlink:href="#DejaVuSans-30" x="127.246094"/>
       <use xlink:href="#DejaVuSans-2e" x="190.869141"/>
       <use xlink:href="#DejaVuSans-30" x="222.65625"/>
      </g>
     </g>
    </g>
    <g id="xtick_62">
     <g id="line2d_71">
      <g>
       <use xlink:href="#ma9560e8a28" x="595.027083" y="318.84375" style="stroke: #000000; stroke-width: 0.8"/>
      </g>
     </g>
     <g id="text_24">
      <!-- 433.3 -->
      <g transform="translate(580.713021 333.442188)scale(0.1 -0.1)">
       <use xlink:href="#DejaVuSans-34"/>
       <use xlink:href="#DejaVuSans-33" x="63.623047"/>
       <use xlink:href="#DejaVuSans-33" x="127.246094"/>
       <use xlink:href="#DejaVuSans-2e" x="190.869141"/>
       <use xlink:href="#DejaVuSans-33" x="222.65625"/>
      </g>
     </g>
    </g>
    <g id="xtick_63">
     <g id="line2d_72">
      <g>
       <use xlink:href="#ma9560e8a28" x="636.544508" y="318.84375" style="stroke: #000000; stroke-width: 0.8"/>
      </g>
     </g>
     <g id="text_25">
      <!-- 466.7 -->
      <g transform="translate(622.230445 333.442188)scale(0.1 -0.1)">
       <use xlink:href="#DejaVuSans-34"/>
       <use xlink:href="#DejaVuSans-36" x="63.623047"/>
       <use xlink:href="#DejaVuSans-36" x="127.246094"/>
       <use xlink:href="#DejaVuSans-2e" x="190.869141"/>
       <use xlink:href="#DejaVuSans-37" x="222.65625"/>
      </g>
     </g>
    </g>
    <g id="xtick_64">
     <g id="line2d_73">
      <g>
       <use xlink:href="#ma9560e8a28" x="678.061932" y="318.84375" style="stroke: #000000; stroke-width: 0.8"/>
      </g>
     </g>
    </g>
    <g id="text_26">
     <!-- Tiempo [ns] -->
     <g transform="translate(336.95 347.120313)scale(0.1 -0.1)">
      <defs>
       <path id="DejaVuSans-54" d="M -19 4666 
L 3928 4666 
L 3928 4134 
L 2272 4134 
L 2272 0 
L 1638 0 
L 1638 4134 
L -19 4134 
L -19 4666 
z
" transform="scale(0.015625)"/>
       <path id="DejaVuSans-70" d="M 1159 525 
L 1159 -1331 
L 581 -1331 
L 581 3500 
L 1159 3500 
L 1159 2969 
Q 1341 3281 1617 3432 
Q 1894 3584 2278 3584 
Q 2916 3584 3314 3078 
Q 3713 2572 3713 1747 
Q 3713 922 3314 415 
Q 2916 -91 2278 -91 
Q 1894 -91 1617 61 
Q 1341 213 1159 525 
z
M 3116 1747 
Q 3116 2381 2855 2742 
Q 2594 3103 2138 3103 
Q 1681 3103 1420 2742 
Q 1159 2381 1159 1747 
Q 1159 1113 1420 752 
Q 1681 391 2138 391 
Q 2594 391 2855 752 
Q 3116 1113 3116 1747 
z
" transform="scale(0.015625)"/>
       <path id="DejaVuSans-73" d="M 2834 3397 
L 2834 2853 
Q 2591 2978 2328 3040 
Q 2066 3103 1784 3103 
Q 1356 3103 1142 2972 
Q 928 2841 928 2578 
Q 928 2378 1081 2264 
Q 1234 2150 1697 2047 
L 1894 2003 
Q 2506 1872 2764 1633 
Q 3022 1394 3022 966 
Q 3022 478 2636 193 
Q 2250 -91 1575 -91 
Q 1294 -91 989 -36 
Q 684 19 347 128 
L 347 722 
Q 666 556 975 473 
Q 1284 391 1588 391 
Q 1994 391 2212 530 
Q 2431 669 2431 922 
Q 2431 1156 2273 1281 
Q 2116 1406 1581 1522 
L 1381 1569 
Q 847 1681 609 1914 
Q 372 2147 372 2553 
Q 372 3047 722 3315 
Q 1072 3584 1716 3584 
Q 2034 3584 2315 3537 
Q 2597 3491 2834 3397 
z
" transform="scale(0.015625)"/>
      </defs>
      <use xlink:href="#DejaVuSans-54"/>
      <use xlink:href="#DejaVuSans-69" x="57.958984"/>
      <use xlink:href="#DejaVuSans-65" x="85.742188"/>
      <use xlink:href="#DejaVuSans-6d" x="147.265625"/>
      <use xlink:href="#DejaVuSans-70" x="244.677734"/>
      <use xlink:href="#DejaVuSans-6f" x="308.154297"/>
      <use xlink:href="#DejaVuSans-20" x="369.335938"/>
      <use xlink:href="#DejaVuSans-5b" x="401.123047"/>
      <use xlink:href="#DejaVuSans-6e" x="440.136719"/>
      <use xlink:href="#DejaVuSans-73" x="503.515625"/>
      <use xlink:href="#DejaVuSans-5d" x="555.615234"/>
     </g>
    </g>
   </g>
   <g id="matplotlib.axis_8">
    <g id="ytick_7">
     <g id="line2d_74">
      <g>
       <use xlink:href="#m20ad4d90dd" x="24.1625" y="316.040508" style="stroke: #000000; stroke-width: 0.8"/>
      </g>
     </g>
     <g id="text_27">
      <!-- 0 -->
      <g transform="translate(10.8 319.839727)scale(0.1 -0.1)">
       <use xlink:href="#DejaVuSans-30"/>
      </g>
     </g>
    </g>
    <g id="ytick_8">
     <g id="line2d_75">
      <g>
       <use xlink:href="#m20ad4d90dd" x="24.1625" y="259.975672" style="stroke: #000000; stroke-width: 0.8"/>
      </g>
     </g>
     <g id="text_28">
      <!-- 1 -->
      <g transform="translate(10.8 263.77489)scale(0.1 -0.1)">
       <use xlink:href="#DejaVuSans-31"/>
      </g>
     </g>
    </g>
   </g>
   <g id="line2d_76">
    <path d="M 55.300568 316.040508 
L 55.300568 316.040508 
L 96.817992 316.040508 
L 96.817992 316.040508 
L 138.335417 316.040508 
L 138.335417 316.040508 
L 179.852841 316.040508 
L 179.852841 316.040508 
L 221.370265 316.040508 
L 221.370265 259.975672 
L 262.887689 259.975672 
L 262.887689 316.040508 
L 304.405114 316.040508 
L 304.405114 316.040508 
L 345.922538 316.040508 
L 345.922538 316.040508 
L 387.439962 316.040508 
L 387.439962 316.040508 
L 428.957386 316.040508 
L 428.957386 316.040508 
L 470.474811 316.040508 
L 470.474811 316.040508 
L 511.992235 316.040508 
L 511.992235 316.040508 
L 553.509659 316.040508 
L 553.509659 316.040508 
L 595.027083 316.040508 
L 595.027083 316.040508 
L 636.544508 316.040508 
L 636.544508 316.040508 
L 678.061932 316.040508 
" clip-path="url(#p9c9f55b016)" style="fill: none; stroke: #0000ff; stroke-width: 1.5; stroke-linecap: square"/>
   </g>
   <g id="patch_24">
    <path d="M 24.1625 318.84375 
L 24.1625 257.17243 
" style="fill: none; stroke: #000000; stroke-width: 0.8; stroke-linejoin: miter; stroke-linecap: square"/>
   </g>
   <g id="patch_25">
    <path d="M 709.2 318.84375 
L 709.2 257.17243 
" style="fill: none; stroke: #000000; stroke-width: 0.8; stroke-linejoin: miter; stroke-linecap: square"/>
   </g>
   <g id="patch_26">
    <path d="M 24.1625 318.84375 
L 709.2 318.84375 
" style="fill: none; stroke: #000000; stroke-width: 0.8; stroke-linejoin: miter; stroke-linecap: square"/>
   </g>
   <g id="patch_27">
    <path d="M 24.1625 257.17243 
L 709.2 257.17243 
" style="fill: none; stroke: #000000; stroke-width: 0.8; stroke-linejoin: miter; stroke-linecap: square"/>
   </g>
   <g id="legend_4">
    <g id="patch_28">
     <path d="M 632.071875 280.12868 
L 702.2 280.12868 
Q 704.2 280.12868 704.2 278.12868 
L 704.2 264.17243 
Q 704.2 262.17243 702.2 262.17243 
L 632.071875 262.17243 
Q 630.071875 262.17243 630.071875 264.17243 
L 630.071875 278.12868 
Q 630.071875 280.12868 632.071875 280.12868 
z
" style="fill: #ffffff; opacity: 0.8; stroke: #cccccc; stroke-linejoin: miter"/>
    </g>
    <g id="patch_29">
     <path d="M 634.071875 273.770867 
L 654.071875 273.770867 
L 654.071875 266.770867 
L 634.071875 266.770867 
z
" style="fill: #0000ff; fill-opacity: 0.4; stroke: #0000ff; stroke-opacity: 0.4; stroke-linejoin: miter"/>
    </g>
    <g id="text_29">
     <!-- tx_start -->
     <g transform="translate(662.071875 273.770867)scale(0.1 -0.1)">
      <use xlink:href="#DejaVuSans-74"/>
      <use xlink:href="#DejaVuSans-78" x="39.208984"/>
      <use xlink:href="#DejaVuSans-5f" x="98.388672"/>
      <use xlink:href="#DejaVuSans-73" x="148.388672"/>
      <use xlink:href="#DejaVuSans-74" x="200.488281"/>
      <use xlink:href="#DejaVuSans-61" x="239.697266"/>
      <use xlink:href="#DejaVuSans-72" x="300.976562"/>
      <use xlink:href="#DejaVuSans-74" x="342.089844"/>
     </g>
    </g>
   </g>
  </g>
 </g>
 <defs>
  <clipPath id="p19cf3accb9">
   <rect x="24.1625" y="25.918125" width="685.0375" height="61.67132"/>
  </clipPath>
  <clipPath id="p029c5e0510">
   <rect x="24.1625" y="103.002893" width="685.0375" height="61.67132"/>
  </clipPath>
  <clipPath id="pbbd982816f">
   <rect x="24.1625" y="180.087661" width="685.0375" height="61.67132"/>
  </clipPath>
  <clipPath id="p9c9f55b016">
   <rect x="24.1625" y="257.17243" width="685.0375" height="61.67132"/>
  </clipPath>
 </defs>
</svg>
